<svg width="25" height="25" viewBox="0 0 25 25" fill="none" xmlns="http://www.w3.org/2000/svg">
<path d="M17.0156 19.05H13.0156L8.56561 22.01C7.90561 22.45 7.01562 21.98 7.01562 21.18V19.05C4.01562 19.05 2.01562 17.05 2.01562 14.05V8.04993C2.01562 5.04993 4.01562 3.04993 7.01562 3.04993H17.0156C20.0156 3.04993 22.0156 5.04993 22.0156 8.04993V14.05C22.0156 17.05 20.0156 19.05 17.0156 19.05Z" stroke="#171717" stroke-width="1.5" strokeMiterlimit="10" stroke-linecap="round" stroke-linejoin="round"/>
<path d="M12.0154 11.98V11.77C12.0154 11.09 12.4355 10.73 12.8555 10.44C13.2655 10.16 13.6754 9.80001 13.6754 9.14001C13.6754 8.22001 12.9354 7.47998 12.0154 7.47998C11.0954 7.47998 10.3555 8.22001 10.3555 9.14001" stroke="#171717" stroke-width="1.5" stroke-linecap="round" stroke-linejoin="round"/>
<path d="M12.0107 14.37H12.0197" stroke="#171717" stroke-width="1.5" stroke-linecap="round" stroke-linejoin="round"/>
</svg>
