<svg width="23" height="22" viewBox="0 0 23 22" fill="none" xmlns="http://www.w3.org/2000/svg">
<path d="M1.5 11.9323V10.0677C1.5 8.96589 2.34959 8.05473 3.39906 8.05473C5.20816 8.05473 5.94778 6.69864 5.03823 5.03531C4.51849 4.08182 4.82834 2.84227 5.73788 2.29136L7.46702 1.24251C8.25663 0.74457 9.27613 1.04121 9.74586 1.87817L9.85581 2.07947C10.7554 3.74279 12.2346 3.74279 13.1442 2.07947L13.2541 1.87817C13.7239 1.04121 14.7434 0.74457 15.533 1.24251L17.2621 2.29136C18.1717 2.84227 18.4815 4.08182 17.9618 5.03531C17.0522 6.69864 17.7919 8.05473 19.6009 8.05473C20.6404 8.05473 21.5 8.9553 21.5 10.0677V11.9323C21.5 13.0342 20.6504 13.9453 19.6009 13.9453C17.7919 13.9453 17.0522 15.3014 17.9618 16.9647C18.4815 17.9288 18.1717 19.1577 17.2621 19.7086L15.533 20.7575C14.7434 21.2554 13.7239 20.9588 13.2541 20.1218L13.1442 19.9205C12.2446 18.2572 10.7654 18.2572 9.85581 19.9205L9.74586 20.1218C9.27613 20.9588 8.25663 21.2554 7.46702 20.7575L5.73788 19.7086C4.82834 19.1577 4.51849 17.9182 5.03823 16.9647C5.94778 15.3014 5.20816 13.9453 3.39906 13.9453C2.34959 13.9453 1.5 13.0342 1.5 11.9323Z" stroke="#1A1B1C" stroke-width="1.75" strokeMiterlimit="10" stroke-linecap="round" stroke-linejoin="round"/>
<path d="M11.5135 14.8461C13.6368 14.8461 15.358 13.1242 15.358 11C15.358 8.87573 13.6368 7.15381 11.5135 7.15381C9.39026 7.15381 7.66895 8.87573 7.66895 11C7.66895 13.1242 9.39026 14.8461 11.5135 14.8461Z" stroke="#1A1B1C" stroke-width="1.75" strokeMiterlimit="10" stroke-linecap="round" stroke-linejoin="round"/>
</svg>
