<svg fill="none" height="30" viewBox="0 0 24 24" width="30" xmlns="http://www.w3.org/2000/svg"><path d="m6.99486 7.00636c-.39053.39053-.39053 1.02369 0 1.41422l3.58514 3.58512-3.58514 3.5852c-.39053.3905-.39053 1.0237 0 1.4142.39052.3905 1.02369.3905 1.41421 0l3.58513-3.5852 3.5852 3.5852c.3905.3905 1.0237.3905 1.4142 0s.3905-1.0237 0-1.4142l-3.5852-3.5852 3.5852-3.58511c.3905-.39052.3905-1.02369 0-1.41421-.3906-.39053-1.0237-.39053-1.4142 0l-3.5852 3.58512-3.58513-3.58514c-.39052-.39052-1.02369-.39052-1.41421 0z" fill="#1A1B1C"/></svg>