<svg
              width="25"
              height="25"
              viewBox="0 0 25 25"
              fill="none"
              xmlns="http://www.w3.org/2000/svg"
            >
              <path
                d="M18.9098 18.71L16.0898 21.53"
                stroke="#FF0051"
                stroke-width="1.5"
                stroke-linecap="round"
                stroke-linejoin="round"
              />
              <path
                d="M18.9098 21.53L16.0898 18.71"
                stroke="#FF0051"
                stroke-width="1.5"
                stroke-linecap="round"
                stroke-linejoin="round"
              />
              <path
                d="M12.6606 11.49C12.5606 11.48 12.4406 11.48 12.3306 11.49C9.95055 11.41 8.06055 9.46 8.06055 7.06C8.06055 4.61 10.0405 2.62 12.5006 2.62C14.9506 2.62 16.9406 4.61 16.9406 7.06C16.9306 9.46 15.0406 11.41 12.6606 11.49Z"
                stroke="#FF0051"
                stroke-width="1.5"
                stroke-linecap="round"
                stroke-linejoin="round"
              />
              <path
                d="M12.4998 22.43C10.6798 22.43 8.8698 21.97 7.4898 21.05C5.0698 19.43 5.0698 16.79 7.4898 15.18C10.2398 13.34 14.7498 13.34 17.4998 15.18"
                stroke="#FF0051"
                stroke-width="1.5"
                stroke-linecap="round"
                stroke-linejoin="round"
              />
            </svg>