<svg width="20" height="20" viewBox="0 0 20 20" fill="none" xmlns="http://www.w3.org/2000/svg">
<path d="M17.6016 5.23409C14.9653 4.97284 12.3132 4.83826 9.66906 4.83826C8.10156 4.83826 6.53406 4.91742 4.96656 5.07576L3.35156 5.23409" stroke="#FF0051" stroke-width="1.5" stroke-linecap="round" stroke-linejoin="round"/>
<path d="M7.70605 4.43462L7.88022 3.39754C8.00689 2.64546 8.10189 2.08337 9.4398 2.08337H11.514C12.8519 2.08337 12.9548 2.67712 13.0736 3.40546L13.2477 4.43462" stroke="#FF0051" stroke-width="1.5" stroke-linecap="round" stroke-linejoin="round"/>
<path d="M15.8995 7.73572L15.385 15.7078C15.2979 16.9507 15.2266 17.9166 13.0179 17.9166H7.93538C5.72663 17.9166 5.65538 16.9507 5.56829 15.7078L5.05371 7.73572" stroke="#FF0051" stroke-width="1.5" stroke-linecap="round" stroke-linejoin="round"/>
<path d="M9.1543 13.5625H11.7905" stroke="#FF0051" stroke-width="1.5" stroke-linecap="round" stroke-linejoin="round"/>
<path d="M8.49707 10.3959H12.4554" stroke="#FF0051" stroke-width="1.5" stroke-linecap="round" stroke-linejoin="round"/>
</svg>
