<svg width="23" height="23" viewBox="0 0 23 23" fill="none" xmlns="http://www.w3.org/2000/svg">
<path d="M19.5702 14.4673C18.6108 19.2455 14.0306 22.7131 8.82092 21.8669C4.9112 21.2373 1.76482 18.0897 1.12523 14.1783C0.289636 8.98725 3.73518 4.40503 8.49087 3.43494" fill="#1A1B1C"/>
<path d="M19.5702 14.4673C18.6108 19.2455 14.0306 22.7131 8.82092 21.8669C4.9112 21.2373 1.76482 18.0897 1.12523 14.1783C0.289636 8.98725 3.73518 4.40503 8.49087 3.43494" stroke="#1A1B1C" stroke-width="1.75" stroke-linecap="round" stroke-linejoin="round"/>
<path d="M21.4828 7.0181L21.4825 7.01701C20.7281 4.45093 18.5449 2.26678 15.9796 1.51197L15.9785 1.51164C14.2543 1.0068 12.783 0.919645 11.7449 1.66709C10.6905 2.4262 10.4424 3.78208 10.4424 5.15847V8.13069C10.4424 9.48361 10.7153 10.6299 11.4409 11.4356C12.1851 12.2621 13.2447 12.5559 14.4122 12.5559H17.8371C19.2131 12.5559 20.5687 12.3075 21.3275 11.2527C22.0744 10.2145 21.9874 8.74293 21.4828 7.0181Z" fill="#1A1B1C" stroke="white" stroke-width="1.75" stroke-linecap="round" stroke-linejoin="round"/>
</svg>
