<svg width="22" height="22" viewBox="0 0 22 22" fill="none" xmlns="http://www.w3.org/2000/svg">
<path d="M1 11.9323V10.0677C1 8.96589 1.84959 8.05473 2.89906 8.05473C4.70816 8.05473 5.44778 6.69864 4.53823 5.03531C4.01849 4.08182 4.32834 2.84227 5.23788 2.29136L6.96702 1.24251C7.75663 0.74457 8.77613 1.04121 9.24586 1.87817L9.35581 2.07947C10.2554 3.74279 11.7346 3.74279 12.6442 2.07947L12.7541 1.87817C13.2239 1.04121 14.2434 0.74457 15.033 1.24251L16.7621 2.29136C17.6717 2.84227 17.9815 4.08182 17.4618 5.03531C16.5522 6.69864 17.2919 8.05473 19.1009 8.05473C20.1404 8.05473 21 8.9553 21 10.0677V11.9323C21 13.0342 20.1504 13.9453 19.1009 13.9453C17.2919 13.9453 16.5522 15.3014 17.4618 16.9647C17.9815 17.9288 17.6717 19.1577 16.7621 19.7086L15.033 20.7575C14.2434 21.2554 13.2239 20.9588 12.7541 20.1218L12.6442 19.9205C11.7446 18.2572 10.2654 18.2572 9.35581 19.9205L9.24586 20.1218C8.77613 20.9588 7.75663 21.2554 6.96702 20.7575L5.23788 19.7086C4.32834 19.1577 4.01849 17.9182 4.53823 16.9647C5.44778 15.3014 4.70816 13.9453 2.89906 13.9453C1.84959 13.9453 1 13.0342 1 11.9323Z" fill="#1A1B1C" stroke="#1A1B1C" stroke-width="1.75" stroke-miterlimit="10" stroke-linecap="round" stroke-linejoin="round"/>
<path d="M11.0135 14.8461C13.1368 14.8461 14.858 13.1242 14.858 11C14.858 8.87573 13.1368 7.15381 11.0135 7.15381C8.89026 7.15381 7.16895 8.87573 7.16895 11C7.16895 13.1242 8.89026 14.8461 11.0135 14.8461Z" fill="white" stroke="#1A1B1C" stroke-width="1.75" stroke-miterlimit="10" stroke-linecap="round" stroke-linejoin="round"/>
</svg>
